<svg xmlns="http://www.w3.org/2000/svg" xmlns:xlink="http://www.w3.org/1999/xlink" width="500" zoomAndPan="magnify" viewBox="0 0 375 374.999991" height="500" preserveAspectRatio="xMidYMid meet" version="1.2"><defs><clipPath id="6b4d8b543d"><path d="M 71 96.839844 L 305 96.839844 L 305 278.339844 L 71 278.339844 Z M 71 96.839844 "/></clipPath></defs><g id="98226255f3"><path style=" stroke:none;fill-rule:nonzero;fill:#ffffff;fill-opacity:1;" d="M 299.148438 133.789062 C 297.566406 129.679688 295.394531 125.917969 292.453125 122.765625 C 284.847656 114.625 272.054688 109.195312 261.53125 106.214844 C 245.246094 101.597656 227.972656 99.511719 211.085938 98.957031 C 190.046875 98.269531 168.894531 99.636719 148.152344 103.261719 C 127.503906 106.867188 105.640625 112.34375 89.820312 127.035156 C 69.730469 145.691406 70.683594 176.265625 79.210938 200.65625 C 84.308594 215.230469 93.0625 228.074219 106.011719 236.65625 C 112.109375 240.695312 118.859375 243.484375 125.875 245.433594 C 129.753906 254.566406 130.4375 264.265625 121.1875 269.390625 C 118.058594 271.121094 119.324219 276.589844 123.058594 276.324219 C 141.558594 274.996094 157.523438 264.320312 168.660156 249.746094 C 169.40625 248.773438 178.109375 249.207031 179.625 249.078125 C 183.648438 248.726562 187.664062 248.269531 191.664062 247.730469 C 208.605469 245.4375 225.488281 244.203125 242.257812 240.566406 C 259.113281 236.910156 277.117188 231.617188 287.285156 216.542969 C 296.230469 203.277344 301.390625 186.242188 302.550781 170.421875 C 303.367188 159.222656 303.523438 145.171875 299.148438 133.789062 "/><g clip-rule="nonzero" clip-path="url(#6b4d8b543d)"><path style=" stroke:none;fill-rule:nonzero;fill:#231f20;fill-opacity:1;" d="M 299.148438 133.789062 L 300.980469 133.082031 C 299.328125 128.78125 297.035156 124.789062 293.886719 121.417969 C 289.855469 117.109375 284.570312 113.613281 278.96875 110.792969 C 273.363281 107.976562 267.425781 105.835938 262.066406 104.320312 C 245.578125 99.644531 228.152344 97.542969 211.152344 96.988281 C 207.640625 96.871094 204.121094 96.816406 200.605469 96.816406 C 182.929688 96.816406 165.234375 98.277344 147.816406 101.320312 C 137.441406 103.132812 126.703125 105.421875 116.503906 109.140625 C 106.308594 112.859375 96.636719 118.019531 88.484375 125.589844 C 82.339844 131.292969 78.078125 138.09375 75.371094 145.4375 C 72.664062 152.78125 71.507812 160.671875 71.507812 168.628906 C 71.507812 179.78125 73.777344 191.074219 77.355469 201.308594 C 79.960938 208.757812 83.507812 215.785156 88.078125 222.0625 C 92.648438 228.34375 98.246094 233.871094 104.929688 238.296875 C 111.238281 242.476562 118.183594 245.339844 125.351562 247.332031 L 125.875 245.433594 L 124.070312 246.207031 C 125.636719 249.882812 126.613281 253.597656 126.609375 256.871094 C 126.605469 259.132812 126.15625 261.164062 125.171875 262.949219 C 124.179688 264.738281 122.640625 266.328125 120.234375 267.664062 C 119.289062 268.183594 118.558594 268.96875 118.105469 269.832031 C 117.652344 270.699219 117.453125 271.636719 117.453125 272.550781 C 117.453125 273.929688 117.890625 275.285156 118.789062 276.394531 C 119.234375 276.941406 119.8125 277.429688 120.496094 277.769531 C 121.179688 278.113281 121.972656 278.304688 122.796875 278.300781 C 122.929688 278.300781 123.058594 278.296875 123.175781 278.289062 L 123.199219 278.289062 C 132.785156 277.601562 141.707031 274.488281 149.636719 269.6875 C 157.566406 264.886719 164.515625 258.40625 170.222656 250.945312 L 169.027344 250.027344 L 169.863281 251.285156 C 169.945312 251.226562 170.074219 251.132812 170.222656 250.945312 L 169.027344 250.027344 L 169.863281 251.285156 L 169.34375 250.503906 L 169.71875 251.367188 C 169.734375 251.359375 169.78125 251.335938 169.863281 251.285156 L 169.34375 250.503906 L 169.71875 251.367188 L 169.621094 251.148438 L 169.703125 251.371094 L 169.71875 251.367188 L 169.621094 251.148438 L 169.703125 251.371094 C 169.71875 251.363281 169.980469 251.292969 170.332031 251.25 C 170.871094 251.175781 171.636719 251.125 172.480469 251.097656 C 173.328125 251.066406 174.253906 251.058594 175.15625 251.058594 C 176.359375 251.058594 177.511719 251.074219 178.394531 251.074219 C 178.679688 251.074219 178.9375 251.070312 179.164062 251.066406 C 179.394531 251.0625 179.589844 251.054688 179.785156 251.039062 L 179.792969 251.039062 C 183.855469 250.6875 187.898438 250.226562 191.925781 249.683594 C 208.792969 247.398438 225.726562 246.167969 242.675781 242.492188 C 251.152344 240.648438 260.003906 238.390625 268.105469 234.621094 C 272.15625 232.738281 276.023438 230.476562 279.546875 227.6875 C 283.070312 224.902344 286.25 221.59375 288.914062 217.644531 C 298.09375 204.019531 303.320312 186.707031 304.507812 170.566406 C 304.769531 166.953125 304.96875 163.035156 304.96875 158.988281 C 304.960938 150.375 304.089844 141.179688 300.984375 133.082031 L 297.3125 134.496094 C 300.160156 141.882812 301.042969 150.648438 301.035156 158.988281 C 301.035156 162.90625 300.847656 166.734375 300.585938 170.28125 C 299.460938 185.777344 294.367188 202.535156 285.65625 215.4375 C 283.238281 219.027344 280.351562 222.035156 277.113281 224.59375 C 272.257812 228.433594 266.589844 231.269531 260.554688 233.480469 C 254.523438 235.695312 248.125 237.277344 241.84375 238.640625 C 225.25 242.242188 208.425781 243.476562 191.402344 245.777344 C 187.425781 246.3125 183.445312 246.765625 179.457031 247.113281 L 179.464844 247.109375 C 179.417969 247.117188 179.273438 247.121094 179.089844 247.125 C 178.902344 247.128906 178.664062 247.132812 178.394531 247.132812 C 177.554688 247.132812 176.390625 247.117188 175.15625 247.117188 C 173.703125 247.117188 172.160156 247.136719 170.847656 247.238281 C 170.191406 247.289062 169.59375 247.355469 169.039062 247.476562 C 168.757812 247.535156 168.488281 247.613281 168.183594 247.738281 C 168.03125 247.804688 167.867188 247.882812 167.683594 248 C 167.507812 248.125 167.300781 248.285156 167.097656 248.546875 C 161.667969 255.660156 155.0625 261.800781 147.605469 266.3125 C 140.140625 270.828125 131.832031 273.71875 122.917969 274.355469 L 123.058594 276.324219 L 122.941406 274.355469 C 122.878906 274.359375 122.832031 274.363281 122.796875 274.363281 C 122.554688 274.359375 122.394531 274.3125 122.246094 274.242188 C 122.027344 274.132812 121.820312 273.933594 121.648438 273.628906 C 121.484375 273.324219 121.382812 272.925781 121.382812 272.550781 C 121.382812 272.214844 121.457031 271.910156 121.582031 271.675781 C 121.710938 271.4375 121.867188 271.265625 122.136719 271.113281 C 125.09375 269.480469 127.246094 267.332031 128.609375 264.863281 C 129.976562 262.394531 130.542969 259.652344 130.539062 256.871094 C 130.535156 252.828125 129.382812 248.664062 127.683594 244.660156 C 127.449219 244.113281 126.976562 243.691406 126.402344 243.535156 C 119.535156 241.625 112.984375 238.910156 107.097656 235.011719 C 100.832031 230.859375 95.574219 225.671875 91.253906 219.742188 C 86.9375 213.8125 83.558594 207.128906 81.066406 200.003906 C 77.617188 190.136719 75.433594 179.238281 75.433594 168.628906 C 75.433594 161.050781 76.542969 153.628906 79.058594 146.804688 C 81.578125 139.976562 85.492188 133.746094 91.15625 128.484375 C 98.820312 121.363281 107.996094 116.441406 117.847656 112.84375 C 127.699219 109.25 138.21875 106.996094 148.492188 105.203125 C 165.671875 102.199219 183.148438 100.757812 200.605469 100.757812 C 204.078125 100.757812 207.550781 100.8125 211.023438 100.925781 C 227.789062 101.476562 244.914062 103.550781 260.996094 108.109375 C 266.15625 109.574219 271.882812 111.640625 277.203125 114.316406 C 282.527344 116.992188 287.445312 120.28125 291.015625 124.113281 C 293.757812 127.046875 295.804688 130.574219 297.3125 134.496094 L 299.148438 133.789062 "/></g><path style=" stroke:none;fill-rule:nonzero;fill:#ffffff;fill-opacity:1;" d="M 244.925781 111.941406 C 247.609375 111.738281 249.875 112.148438 252.347656 113.390625 "/><path style=" stroke:none;fill-rule:nonzero;fill:#231f20;fill-opacity:1;" d="M 245.082031 113.90625 C 245.46875 113.875 245.84375 113.863281 246.203125 113.863281 C 248.070312 113.871094 249.621094 114.234375 251.472656 115.152344 C 252.441406 115.640625 253.621094 115.246094 254.109375 114.273438 C 254.59375 113.300781 254.203125 112.117188 253.230469 111.628906 C 250.933594 110.464844 248.628906 109.914062 246.203125 109.921875 C 245.730469 109.921875 245.257812 109.941406 244.777344 109.976562 C 243.691406 110.0625 242.882812 111.007812 242.96875 112.097656 C 243.050781 113.179688 243.996094 113.992188 245.082031 113.90625 "/><path style=" stroke:none;fill-rule:nonzero;fill:#ffffff;fill-opacity:1;" d="M 255.648438 115.457031 C 271.320312 118.144531 284.925781 130.339844 289.875 145.429688 "/><path style=" stroke:none;fill-rule:nonzero;fill:#231f20;fill-opacity:1;" d="M 255.316406 117.398438 C 262.757812 118.671875 269.757812 122.222656 275.484375 127.269531 C 281.214844 132.320312 285.652344 138.859375 288.007812 146.042969 C 288.347656 147.078125 289.460938 147.644531 290.492188 147.300781 C 291.523438 146.960938 292.082031 145.847656 291.746094 144.816406 C 289.148438 136.910156 284.3125 129.804688 278.082031 124.3125 C 271.851562 118.820312 264.210938 114.925781 255.980469 113.515625 C 254.910156 113.332031 253.894531 114.050781 253.710938 115.125 C 253.527344 116.195312 254.25 117.214844 255.316406 117.398438 "/><path style=" stroke:none;fill-rule:nonzero;fill:#231f20;fill-opacity:1;" d="M 289.765625 150.183594 C 289.765625 151.011719 289.765625 151.628906 289.765625 152.25 C 289.765625 153.339844 290.648438 154.222656 291.734375 154.222656 C 292.816406 154.222656 293.699219 153.339844 293.699219 152.25 C 293.699219 151.628906 293.699219 151.011719 293.699219 150.183594 C 293.699219 149.09375 292.816406 148.210938 291.734375 148.210938 C 290.648438 148.210938 289.765625 149.09375 289.765625 150.183594 "/><path style=" stroke:none;fill-rule:nonzero;fill:#ffffff;fill-opacity:1;" d="M 190.082031 239.480469 C 192.347656 239.480469 194.410156 239.070312 196.679688 238.863281 "/><path style=" stroke:none;fill-rule:nonzero;fill:#231f20;fill-opacity:1;" d="M 190.082031 241.453125 C 191.335938 241.453125 192.5 241.339844 193.613281 241.207031 C 194.726562 241.074219 195.789062 240.921875 196.855469 240.828125 C 197.9375 240.726562 198.734375 239.769531 198.636719 238.683594 C 198.539062 237.601562 197.582031 236.804688 196.503906 236.902344 C 195.300781 237.011719 194.199219 237.167969 193.148438 237.292969 C 192.09375 237.417969 191.097656 237.511719 190.082031 237.511719 C 188.996094 237.511719 188.117188 238.394531 188.117188 239.480469 C 188.117188 240.570312 188.996094 241.453125 190.082031 241.453125 "/><path style=" stroke:none;fill-rule:nonzero;fill:#ffffff;fill-opacity:1;" d="M 205.339844 238.035156 C 209.875 237.003906 214.617188 237.207031 219.15625 236.585938 C 228.019531 235.761719 236.886719 233.902344 245.339844 230.59375 "/><path style=" stroke:none;fill-rule:nonzero;fill:#231f20;fill-opacity:1;" d="M 205.773438 239.957031 C 207.871094 239.480469 210.085938 239.277344 212.378906 239.125 C 214.667969 238.96875 217.03125 238.867188 219.421875 238.539062 L 219.15625 236.585938 L 219.335938 238.550781 C 228.351562 237.710938 237.398438 235.816406 246.054688 232.429688 C 247.066406 232.035156 247.566406 230.890625 247.171875 229.878906 C 246.777344 228.863281 245.636719 228.363281 244.625 228.757812 C 236.371094 231.988281 227.6875 233.8125 218.972656 234.628906 L 218.886719 234.636719 C 216.742188 234.929688 214.464844 235.035156 212.117188 235.191406 C 209.769531 235.347656 207.34375 235.558594 204.902344 236.113281 C 203.847656 236.355469 203.179688 237.410156 203.421875 238.472656 C 203.660156 239.535156 204.714844 240.199219 205.777344 239.957031 "/><g style="fill:#3b74e8;fill-opacity:1;"><g transform="translate(106.44492, 199.323552)"><path style="stroke:none" d="M 6.25 -28.921875 L 9.265625 -1 L 2.46875 -0.265625 L -0.546875 -28.1875 Z M 6.25 -28.921875 "/></g></g><g style="fill:#3b74e8;fill-opacity:1;"><g transform="translate(118.175348, 198.05498)"><path style="stroke:none" d="M 13.5625 -24.171875 C 16.164062 -24.453125 18.332031 -23.832031 20.0625 -22.3125 C 21.800781 -20.800781 22.828125 -18.570312 23.140625 -15.625 L 24.546875 -2.65625 L 17.765625 -1.921875 L 16.46875 -13.984375 C 16.300781 -15.460938 15.789062 -16.570312 14.9375 -17.3125 C 14.082031 -18.050781 13.003906 -18.351562 11.703125 -18.21875 C 10.410156 -18.070312 9.421875 -17.546875 8.734375 -16.640625 C 8.054688 -15.734375 7.800781 -14.539062 7.96875 -13.0625 L 9.265625 -1 L 2.46875 -0.265625 L 0.0625 -22.453125 L 6.859375 -23.1875 L 7.1875 -20.25 C 7.769531 -21.300781 8.613281 -22.175781 9.71875 -22.875 C 10.820312 -23.570312 12.101562 -24.003906 13.5625 -24.171875 Z M 13.5625 -24.171875 "/></g></g><g style="fill:#3b74e8;fill-opacity:1;"><g transform="translate(144.976407, 195.156613)"><path style="stroke:none" d="M 11.8125 -18.015625 L 8.140625 -17.625 L 9.9375 -1.078125 L 3.140625 -0.34375 L 1.34375 -16.890625 L -1.109375 -16.625 L -1.71875 -22.265625 L 0.734375 -22.53125 L 0.671875 -23.15625 C 0.378906 -25.894531 0.9375 -28.054688 2.34375 -29.640625 C 3.75 -31.222656 5.960938 -32.179688 8.984375 -32.515625 C 9.492188 -32.566406 9.875 -32.585938 10.125 -32.578125 L 10.734375 -26.828125 C 9.429688 -26.765625 8.535156 -26.476562 8.046875 -25.96875 C 7.566406 -25.46875 7.390625 -24.632812 7.515625 -23.46875 L 7.53125 -23.265625 L 11.203125 -23.65625 Z M 11.8125 -18.015625 "/></g></g><g style="fill:#3b74e8;fill-opacity:1;"><g transform="translate(159.291509, 193.608525)"><path style="stroke:none" d="M 12.59375 -1.046875 C 10.425781 -0.804688 8.421875 -1.054688 6.578125 -1.796875 C 4.742188 -2.535156 3.238281 -3.710938 2.0625 -5.328125 C 0.882812 -6.953125 0.171875 -8.914062 -0.078125 -11.21875 C -0.316406 -13.5 -0.0351562 -15.5625 0.765625 -17.40625 C 1.578125 -19.257812 2.804688 -20.742188 4.453125 -21.859375 C 6.109375 -22.972656 8.023438 -23.648438 10.203125 -23.890625 C 12.378906 -24.117188 14.390625 -23.863281 16.234375 -23.125 C 18.085938 -22.382812 19.613281 -21.195312 20.8125 -19.5625 C 22.007812 -17.9375 22.726562 -15.984375 22.96875 -13.703125 C 23.21875 -11.421875 22.925781 -9.359375 22.09375 -7.515625 C 21.257812 -5.671875 20.007812 -4.191406 18.34375 -3.078125 C 16.6875 -1.960938 14.769531 -1.285156 12.59375 -1.046875 Z M 11.96875 -6.921875 C 13.269531 -7.054688 14.328125 -7.648438 15.140625 -8.703125 C 15.953125 -9.765625 16.257812 -11.179688 16.0625 -12.953125 C 15.875 -14.734375 15.285156 -16.050781 14.296875 -16.90625 C 13.304688 -17.769531 12.15625 -18.132812 10.84375 -18 C 9.519531 -17.851562 8.472656 -17.257812 7.703125 -16.21875 C 6.929688 -15.1875 6.640625 -13.769531 6.828125 -11.96875 C 7.023438 -10.195312 7.609375 -8.878906 8.578125 -8.015625 C 9.546875 -7.148438 10.675781 -6.785156 11.96875 -6.921875 Z M 11.96875 -6.921875 "/></g></g><g style="fill:#0c1c38;fill-opacity:1;"><g transform="translate(184.621913, 190.869201)"><path style="stroke:none" d="M 8.703125 -6.25 L 17.609375 -7.21875 L 18.171875 -1.96875 L 2.46875 -0.265625 L -0.546875 -28.1875 L 6.25 -28.921875 Z M 8.703125 -6.25 "/></g></g><g style="fill:#0c1c38;fill-opacity:1;"><g transform="translate(203.589423, 188.817983)"><path style="stroke:none" d="M 6.25 -28.921875 L 9.265625 -1 L 2.46875 -0.265625 L -0.546875 -28.1875 Z M 6.25 -28.921875 "/></g></g><g style="fill:#0c1c38;fill-opacity:1;"><g transform="translate(215.319852, 187.549411)"><path style="stroke:none" d="M 27.4375 -2.96875 L 20.640625 -2.234375 L 7.40625 -18.21875 L 9.265625 -1 L 2.46875 -0.265625 L -0.546875 -28.1875 L 6.25 -28.921875 L 19.484375 -12.859375 L 17.625 -30.15625 L 24.421875 -30.890625 Z M 27.4375 -2.96875 "/></g></g><g style="fill:#0c1c38;fill-opacity:1;"><g transform="translate(245.22252, 184.315625)"><path style="stroke:none" d="M 18.65625 -2.015625 L 7.9375 -13.328125 L 9.265625 -1 L 2.46875 -0.265625 L -0.546875 -28.1875 L 6.25 -28.921875 L 7.578125 -16.671875 L 15.5625 -29.9375 L 23.546875 -30.796875 L 14.21875 -15.9375 L 26.96875 -2.921875 Z M 18.65625 -2.015625 "/></g></g></g></svg>