<?xml version="1.0"?><!DOCTYPE svg  PUBLIC '-//W3C//DTD SVG 1.1//EN'  'http://www.w3.org/Graphics/SVG/1.1/DTD/svg11.dtd'><svg enable-background="new 0 0 800 800" height="800px" id="Layer_1" version="1.1" viewBox="0 0 800 800" width="800px" xml:space="preserve" xmlns="http://www.w3.org/2000/svg" xmlns:xlink="http://www.w3.org/1999/xlink"><path d="M773.96,384.221h-31.797h-80.19c-0.404-6.319-1.038-12.585-1.9-18.78c0.22-0.035,0.439-0.018,0.659-0.07  l40.614-7.885c8.555-1.672,14.135-9.944,12.472-18.499c-1.664-8.554-9.972-14.134-18.49-12.461l-40.614,7.885  c-0.326,0.07-0.625,0.211-0.942,0.282c-1.636-6.055-3.502-12.004-5.58-17.865l104.48-42.189c8.079-3.256,11.986-12.444,8.729-20.523  c-3.255-8.079-12.443-11.968-20.522-8.73l-105.157,42.454c-2.807-5.544-5.772-11.001-8.977-16.299l36.726-23.849  c7.304-4.752,9.38-14.521,4.646-21.825c-4.753-7.305-14.521-9.364-21.825-4.629l-37.597,24.413  c-4.708-5.949-9.681-11.652-14.908-17.144l81.792-81.792c6.161-6.143,6.161-16.14,0-22.3c-6.16-6.16-16.14-6.16-22.299,0  l-82.619,82.619c-4.604-3.767-9.364-7.322-14.23-10.754l26.594-39.426c4.866-7.217,2.966-17.021-4.249-21.896  c-7.209-4.857-17.021-2.974-21.896,4.26l-27.353,40.553c-5.105-2.693-10.315-5.21-15.631-7.551l46.837-110.253  c3.405-8.008-0.334-17.266-8.352-20.681c-8.018-3.397-17.275,0.334-20.682,8.36l-47.435,111.661  c-5.43-1.602-10.922-3.027-16.502-4.277l10.86-51.043c1.804-8.519-3.634-16.897-12.153-18.709  c-8.492-1.813-16.888,3.625-18.7,12.144l-11.212,52.697c-6.848-0.634-13.782-0.985-20.787-1.038v-93.25V26.041  c0-8.713-7.067-15.771-15.771-15.771c-8.712,0-15.771,7.058-15.771,15.771v31.787v94.975c-5.307,0.616-10.552,1.425-15.753,2.376  l-10.982-56.535c-1.673-8.536-9.963-14.134-18.499-12.461c-8.545,1.654-14.134,9.944-12.462,18.481l11.3,58.153  c-4.893,1.567-9.716,3.309-14.485,5.174L274.646,47.32c-3.274-8.079-12.47-11.986-20.531-8.712  c-8.079,3.256-11.978,12.444-8.722,20.522l49.301,122.134c-5.65,3.08-11.133,6.424-16.51,9.926l-35.061-51.976  c-4.867-7.216-14.67-9.117-21.887-4.242c-7.225,4.858-9.126,14.662-4.251,21.878l35.862,53.172  c-3.696,3.133-7.287,6.39-10.798,9.734l-95.327-95.345c-6.16-6.16-16.14-6.16-22.3,0c-6.161,6.16-6.161,16.158,0,22.3l96.154,96.154  c-2.983,3.661-5.843,7.428-8.625,11.247l-55.091-37.156c-7.199-4.858-17.02-2.975-21.887,4.26c-4.867,7.216-2.966,17.02,4.25,21.896  l55.813,37.631c-2.218,4.065-4.321,8.184-6.319,12.356L61.964,239.259c-8.025-3.415-17.275,0.334-20.681,8.343  c-3.405,8.026,0.335,17.284,8.352,20.681l127.379,54.124c-1.435,4.347-2.764,8.748-3.96,13.201l-67.042-14.24  c-8.51-1.813-16.896,3.626-18.709,12.145c-1.813,8.519,3.625,16.897,12.145,18.709l67.429,14.327  c-0.792,5.826-1.39,11.722-1.76,17.671H57.836H26.04c-8.708,0-15.77,7.058-15.77,15.771c0,8.712,7.063,15.771,15.77,15.771h31.796  h107.278c0.282,4.577,0.704,9.1,1.241,13.588l-67.693,13.166c-8.545,1.653-14.134,9.926-12.47,18.48  c1.46,7.533,8.061,12.761,15.462,12.761c0.995,0,2.015-0.088,3.027-0.282l67.333-13.094c1.108,4.435,2.306,8.835,3.643,13.165  L47.32,525.364c-8.079,3.255-11.978,12.442-8.721,20.521c2.481,6.143,8.387,9.874,14.626,9.874c1.971,0,3.96-0.369,5.896-1.145  l127.836-51.623c1.937,4.261,3.978,8.448,6.152,12.55l-56.579,36.751c-7.304,4.752-9.381,14.521-4.629,21.808  c3.01,4.664,8.071,7.181,13.236,7.181c2.939,0,5.914-0.809,8.572-2.534l55.839-36.276c3.511,5.017,7.173,9.91,11.027,14.644  l-96.163,96.155c-6.16,6.161-6.16,16.157,0,22.301c3.08,3.08,7.12,4.629,11.151,4.629c4.03,0,8.069-1.549,11.15-4.629l95.336-95.327  c3.511,3.326,7.11,6.583,10.807,9.716l-35.871,53.172c-4.875,7.217-2.966,17.021,4.26,21.896c2.693,1.831,5.765,2.693,8.801,2.693  c5.068,0,10.041-2.429,13.086-6.952l35.053-51.976c4.153,2.711,8.387,5.281,12.708,7.745l-51.624,121.481  c-3.406,8.025,0.334,17.284,8.352,20.681c2.016,0.862,4.101,1.268,6.151,1.268c6.143,0,11.978-3.608,14.53-9.609l50.963-119.969  c4.761,1.954,9.602,3.731,14.503,5.402l-12.374,58.189c-1.813,8.52,3.625,16.88,12.145,18.692c1.109,0.247,2.218,0.352,3.3,0.352  c7.288,0,13.834-5.086,15.41-12.496l12.004-56.481c6.6,1.338,13.289,2.358,20.064,3.15c-0.016,0.299-0.087,0.58-0.087,0.88v0.071  v94.006v31.806c0,8.713,7.059,15.77,15.771,15.77c8.703,0,15.771-7.057,15.771-15.77v-31.806v-93.231  c5.518-0.055,10.991-0.317,16.422-0.723l10.331,53.139c1.461,7.533,8.062,12.761,15.462,12.761c0.995,0,2.017-0.089,3.028-0.3  c8.545-1.655,14.134-9.927,12.471-18.481l-9.988-51.377c5.526-1.144,10.965-2.518,16.359-3.995l45.499,112.717  c2.481,6.142,8.386,9.874,14.627,9.874c1.97,0,3.959-0.371,5.896-1.145c8.078-3.256,11.985-12.444,8.729-20.523l-44.9-111.237  c6.803-2.853,13.43-6.037,19.916-9.469c0.185,0.299,0.299,0.633,0.501,0.933l26.755,39.672c3.045,4.523,8.024,6.952,13.094,6.952  c3.028,0,6.099-0.862,8.802-2.693c7.215-4.874,9.125-14.679,4.259-21.896l-26.597-39.426c4.859-3.433,9.629-6.987,14.224-10.754  l82.619,82.619c3.08,3.08,7.11,4.629,11.149,4.629s8.069-1.549,11.149-4.629c6.161-6.144,6.161-16.14,0-22.301l-81.782-81.793  c4.181-4.399,8.255-8.905,12.118-13.604l37.244,25.134c2.692,1.813,5.764,2.693,8.8,2.693c5.069,0,10.042-2.447,13.087-6.953  c4.866-7.234,2.965-17.038-4.269-21.896l-36.443-24.589c3.266-5.175,6.347-10.473,9.231-15.911l104.462,44.373  c2.008,0.861,4.101,1.266,6.161,1.266c6.135,0,11.969-3.607,14.521-9.609c3.406-8.027-0.334-17.284-8.351-20.682l-103.794-44.091  c2.208-5.842,4.171-11.809,5.94-17.847l41.502,8.818c1.102,0.245,2.202,0.352,3.293,0.352c7.285,0,13.834-5.086,15.409-12.496  c1.805-8.52-3.636-16.897-12.153-18.71l-41.108-8.729c1.208-7.64,2.034-15.385,2.526-23.234h80.19h31.797  c8.703,0,15.771-7.059,15.771-15.771C789.73,391.279,782.663,384.221,773.96,384.221z M413.544,617.435  c-119.898,0-217.434-97.545-217.434-217.443c0-69.875,33.161-132.113,84.538-171.909c0.862-0.388,1.76-0.687,2.57-1.232  c1.373-0.916,2.473-2.06,3.449-3.274c35.73-25.768,79.548-41.028,126.877-41.028c119.898,0,217.433,97.545,217.433,217.443  C630.977,519.89,533.442,617.435,413.544,617.435z" fill="#4D4D4D"/></svg>